<?xml version="1.0" encoding="UTF-8" standalone="no"?>
<!DOCTYPE svg PUBLIC "-//W3C//DTD SVG 1.1//EN" "http://www.w3.org/Graphics/SVG/1.1/DTD/svg11.dtd">
<svg width="18" height="18" viewBox="0 0 18 18" version="1.1" xmlns="http://www.w3.org/2000/svg" xmlns:xlink="http://www.w3.org/1999/xlink" xml:space="preserve" xmlns:serif="http://www.serif.com/" style="fill-rule:evenodd;clip-rule:evenodd;stroke-linejoin:round;stroke-miterlimit:2;">
    <g transform="matrix(1,0,0,1,-17.7077,-18.7538)">
        <path d="M26.708,19.754C31.123,19.754 34.708,23.339 34.708,27.754C34.708,32.169 31.123,35.754 26.708,35.754C22.292,35.754 18.708,32.169 18.708,27.754C18.708,23.339 22.292,19.754 26.708,19.754ZM26.708,23.754C28.915,23.754 30.708,25.546 30.708,27.754C30.708,29.962 28.915,31.754 26.708,31.754C24.5,31.754 22.708,29.962 22.708,27.754C22.708,25.546 24.5,23.754 26.708,23.754Z" style="fill:rgb(0,238,255);"/>
    </g>
</svg>
